<svg width="24" height="25" viewBox="0 0 24 25" fill="none" xmlns="http://www.w3.org/2000/svg">
<path d="M2 9.5V7.5C2 4.5 4 2.5 7 2.5H17C20 2.5 22 4.5 22 7.5V9.5" stroke="#292D32" stroke-width="1.5" stroke-miterlimit="10" stroke-linecap="round" stroke-linejoin="round"/>
<path d="M2 15.5V17.5C2 20.5 4 22.5 7 22.5H17C20 22.5 22 20.5 22 17.5V15.5" stroke="#292D32" stroke-width="1.5" stroke-miterlimit="10" stroke-linecap="round" stroke-linejoin="round"/>
<path d="M6.7002 9.76001L12.0002 12.83L17.2602 9.78003" stroke="#292D32" stroke-width="1.5" stroke-linecap="round" stroke-linejoin="round"/>
<path d="M12 18.2701V12.8201" stroke="#292D32" stroke-width="1.5" stroke-linecap="round" stroke-linejoin="round"/>
<path d="M10.7602 6.79006L7.56023 8.57009C6.84023 8.97009 6.24023 9.98008 6.24023 10.8101V14.2001C6.24023 15.0301 6.83023 16.0401 7.56023 16.4401L10.7602 18.2201C11.4402 18.6001 12.5602 18.6001 13.2502 18.2201L16.4502 16.4401C17.1702 16.0401 17.7702 15.0301 17.7702 14.2001V10.8101C17.7702 9.98008 17.1802 8.97009 16.4502 8.57009L13.2502 6.79006C12.5602 6.40006 11.4402 6.40006 10.7602 6.79006Z" stroke="#292D32" stroke-width="1.5" stroke-linecap="round" stroke-linejoin="round"/>
</svg>
