<svg width="25" height="25" viewBox="0 0 25 25" fill="none" xmlns="http://www.w3.org/2000/svg">
<path d="M9.33301 22.5H15.333C20.333 22.5 22.333 20.5 22.333 15.5V9.5C22.333 4.5 20.333 2.5 15.333 2.5H9.33301C4.33301 2.5 2.33301 4.5 2.33301 9.5V15.5C2.33301 20.5 4.33301 22.5 9.33301 22.5Z" stroke="#474747" stroke-width="1.5" stroke-linecap="round" stroke-linejoin="round"/>
<path d="M7.0332 9.76001L12.3332 12.83L17.5932 9.78001" stroke="#474747" stroke-width="1.5" stroke-linecap="round" stroke-linejoin="round"/>
<path d="M12.333 18.2701V12.8201" stroke="#474747" stroke-width="1.5" stroke-linecap="round" stroke-linejoin="round"/>
<path d="M11.0933 6.7901L7.89325 8.5701C7.17325 8.9701 6.57324 9.9801 6.57324 10.8101V14.2001C6.57324 15.0301 7.16325 16.0401 7.89325 16.4401L11.0933 18.2201C11.7733 18.6001 12.8933 18.6001 13.5833 18.2201L16.7833 16.4401C17.5033 16.0401 18.1032 15.0301 18.1032 14.2001V10.8001C18.1032 9.9701 17.5133 8.9601 16.7833 8.5601L13.5833 6.7801C12.8933 6.4001 11.7733 6.4001 11.0933 6.7901Z" stroke="#474747" stroke-width="1.5" stroke-linecap="round" stroke-linejoin="round"/>
</svg>
