<svg width="24" height="25" viewBox="0 0 24 25" fill="none" xmlns="http://www.w3.org/2000/svg">
<path d="M12.1999 12.3L10.7899 13.71C10.0099 14.49 10.0099 15.76 10.7899 16.54C11.5699 17.32 12.8399 17.32 13.6199 16.54L15.8399 14.32C17.3999 12.76 17.3999 10.23 15.8399 8.65999C14.2799 7.09999 11.7499 7.09999 10.1799 8.65999L7.75988 11.08C6.41988 12.42 6.41988 14.59 7.75988 15.93" stroke="#474747" stroke-width="1.5" stroke-linecap="round" stroke-linejoin="round"/>
<path d="M12 22.5C17.5228 22.5 22 18.0228 22 12.5C22 6.97715 17.5228 2.5 12 2.5C6.47715 2.5 2 6.97715 2 12.5C2 18.0228 6.47715 22.5 12 22.5Z" stroke="#474747" stroke-width="1.5" stroke-linecap="round" stroke-linejoin="round"/>
</svg>
