<svg width="24" height="25" viewBox="0 0 24 25" fill="none" xmlns="http://www.w3.org/2000/svg">
<path d="M10.05 3.03004L4.03002 6.96004C2.10002 8.22004 2.10002 11.04 4.03002 12.3L10.05 16.23C11.13 16.94 12.91 16.94 13.99 16.23L19.98 12.3C21.9 11.04 21.9 8.23004 19.98 6.97004L13.99 3.04004C12.91 2.32004 11.13 2.32004 10.05 3.03004Z" stroke="#474747" stroke-width="1.5" stroke-linecap="round" stroke-linejoin="round"/>
<path d="M5.63012 13.5801L5.62012 18.2701C5.62012 19.5401 6.60012 20.9001 7.80012 21.3001L10.9901 22.3601C11.5401 22.5401 12.4501 22.5401 13.0101 22.3601L16.2001 21.3001C17.4001 20.9001 18.3801 19.5401 18.3801 18.2701V13.6301" stroke="#474747" stroke-width="1.5" stroke-linecap="round" stroke-linejoin="round"/>
<path d="M21.3999 15.5V9.5" stroke="#474747" stroke-width="1.5" stroke-linecap="round" stroke-linejoin="round"/>
</svg>
