<svg width="24" height="25" viewBox="0 0 24 25" fill="none" xmlns="http://www.w3.org/2000/svg">
<path d="M18.28 10.2601V13.4001C18.28 13.6001 18.27 13.8 18.25 13.99C18.07 16.11 16.82 17.1701 14.52 17.1701H14.21C14.01 17.1701 13.82 17.2601 13.71 17.4201L12.77 18.6801C12.35 19.2401 11.68 19.2401 11.26 18.6801L10.32 17.4201C10.22 17.2901 9.99001 17.1701 9.82001 17.1701H9.51001C7.00001 17.1701 5.75 16.5501 5.75 13.4101V10.27C5.75 7.97005 6.80999 6.72007 8.92999 6.54007C9.11999 6.52007 9.31999 6.51007 9.51999 6.51007H14.55C17.02 6.50007 18.28 7.76007 18.28 10.2601Z" stroke="#292D32" stroke-opacity="0.5" stroke-width="1.5" stroke-miterlimit="10" stroke-linecap="round" stroke-linejoin="round"/>
<path d="M9 22.5H15C20 22.5 22 20.5 22 15.5V9.5C22 4.5 20 2.5 15 2.5H9C4 2.5 2 4.5 2 9.5V15.5C2 20.5 4 22.5 9 22.5Z" stroke="#292D32" stroke-opacity="0.5" stroke-width="1.5" stroke-linecap="round" stroke-linejoin="round"/>
</svg>
