<svg width="66" height="66" viewBox="0 0 66 66" fill="none" xmlns="http://www.w3.org/2000/svg">
<rect x="0.5" y="0.5" width="65" height="65" rx="11.5" fill="#5188EE" fill-opacity="0.1"/>
<rect x="0.5" y="0.5" width="65" height="65" rx="11.5" stroke="#5188EE"/>
<path d="M44.25 33.75C44.25 31.68 45.93 30 48 30V28.5C48 22.5 46.5 21 40.5 21H25.5C19.5 21 18 22.5 18 28.5V29.25C20.07 29.25 21.75 30.93 21.75 33C21.75 35.07 20.07 36.75 18 36.75V37.5C18 43.5 19.5 45 25.5 45H40.5C46.5 45 48 43.5 48 37.5C45.93 37.5 44.25 35.82 44.25 33.75Z" stroke="#5188EE" stroke-width="1.5" stroke-linecap="round" stroke-linejoin="round"/>
<path d="M30 21L30 45" stroke="#5188EE" stroke-width="1.5" stroke-linecap="round" stroke-linejoin="round" stroke-dasharray="5 5"/>
</svg>
