<svg width="67" height="66" viewBox="0 0 67 66" fill="none" xmlns="http://www.w3.org/2000/svg">
<rect x="1.16699" y="0.5" width="65" height="65" rx="11.5" fill="#5188EE" fill-opacity="0.1"/>
<rect x="1.16699" y="0.5" width="65" height="65" rx="11.5" stroke="#5188EE"/>
<path d="M27.667 18V22.5" stroke="#5188EE" stroke-width="1.5" stroke-miterlimit="10" stroke-linecap="round" stroke-linejoin="round"/>
<path d="M39.667 18V22.5" stroke="#5188EE" stroke-width="1.5" stroke-miterlimit="10" stroke-linecap="round" stroke-linejoin="round"/>
<path d="M20.917 28.635H46.417" stroke="#5188EE" stroke-width="1.5" stroke-miterlimit="10" stroke-linecap="round" stroke-linejoin="round"/>
<path d="M47.167 27.75V40.5C47.167 45 44.917 48 39.667 48H27.667C22.417 48 20.167 45 20.167 40.5V27.75C20.167 23.25 22.417 20.25 27.667 20.25H39.667C44.917 20.25 47.167 23.25 47.167 27.75Z" stroke="#5188EE" stroke-width="1.5" stroke-miterlimit="10" stroke-linecap="round" stroke-linejoin="round"/>
<path d="M39.2086 35.55H39.222" stroke="#5188EE" stroke-width="2" stroke-linecap="round" stroke-linejoin="round"/>
<path d="M39.2086 40.05H39.222" stroke="#5188EE" stroke-width="2" stroke-linecap="round" stroke-linejoin="round"/>
<path d="M33.6597 35.55H33.6732" stroke="#5188EE" stroke-width="2" stroke-linecap="round" stroke-linejoin="round"/>
<path d="M33.6597 40.05H33.6732" stroke="#5188EE" stroke-width="2" stroke-linecap="round" stroke-linejoin="round"/>
<path d="M28.1089 35.55H28.1224" stroke="#5188EE" stroke-width="2" stroke-linecap="round" stroke-linejoin="round"/>
<path d="M28.1089 40.05H28.1224" stroke="#5188EE" stroke-width="2" stroke-linecap="round" stroke-linejoin="round"/>
</svg>
