<svg width="67" height="66" viewBox="0 0 67 66" fill="none" xmlns="http://www.w3.org/2000/svg">
<rect x="0.833008" y="0.5" width="65" height="65" rx="11.5" fill="#5188EE" fill-opacity="0.1"/>
<rect x="0.833008" y="0.5" width="65" height="65" rx="11.5" stroke="#5188EE"/>
<path d="M28.3408 36.4948C28.3408 38.4298 29.8258 39.9898 31.6708 39.9898H35.4358C37.0408 39.9898 38.3458 38.6248 38.3458 36.9448C38.3458 35.1148 37.5508 34.4698 36.3658 34.0498L30.3208 31.9498C29.1358 31.5298 28.3408 30.8848 28.3408 29.0548C28.3408 27.3748 29.6458 26.0098 31.2508 26.0098H35.0158C36.8608 26.0098 38.3458 27.5698 38.3458 29.5048" stroke="#5188EE" stroke-width="1.5" stroke-linecap="round" stroke-linejoin="round"/>
<path d="M33.333 24V42" stroke="#5188EE" stroke-width="1.5" stroke-linecap="round" stroke-linejoin="round"/>
<path d="M37.833 48H28.833C21.333 48 18.333 45 18.333 37.5V28.5C18.333 21 21.333 18 28.833 18H37.833C45.333 18 48.333 21 48.333 28.5V37.5C48.333 45 45.333 48 37.833 48Z" stroke="#5188EE" stroke-width="1.5" stroke-linecap="round" stroke-linejoin="round"/>
</svg>
