<svg width="25" height="25" viewBox="0 0 25 25" fill="none" xmlns="http://www.w3.org/2000/svg">
<path d="M8.87207 14.8298C8.87207 16.1198 9.86207 17.1598 11.0921 17.1598H13.6021C14.6721 17.1598 15.5421 16.2498 15.5421 15.1298C15.5421 13.9098 15.0121 13.4798 14.2221 13.1998L10.1921 11.7998C9.40207 11.5198 8.87207 11.0898 8.87207 9.86984C8.87207 8.74984 9.74207 7.83984 10.8121 7.83984H13.3221C14.5521 7.83984 15.5421 8.87984 15.5421 10.1698" stroke="#292D32" stroke-width="1.5" stroke-linecap="round" stroke-linejoin="round"/>
<path d="M12.2002 6.5V18.5" stroke="#292D32" stroke-width="1.5" stroke-linecap="round" stroke-linejoin="round"/>
<path d="M12.2002 22.5C17.723 22.5 22.2002 18.0228 22.2002 12.5C22.2002 6.97715 17.723 2.5 12.2002 2.5C6.67735 2.5 2.2002 6.97715 2.2002 12.5C2.2002 18.0228 6.67735 22.5 12.2002 22.5Z" stroke="#292D32" stroke-width="1.5" stroke-linecap="round" stroke-linejoin="round"/>
</svg>
