<svg width="24" height="25" viewBox="0 0 24 25" fill="none" xmlns="http://www.w3.org/2000/svg">
<path d="M9 22.5H15C20 22.5 22 20.5 22 15.5V9.5C22 4.5 20 2.5 15 2.5H9C4 2.5 2 4.5 2 9.5V15.5C2 20.5 4 22.5 9 22.5Z" stroke="#474747" stroke-width="1.5" stroke-linecap="round" stroke-linejoin="round"/>
<path d="M6.69995 9.76001L11.9999 12.83L17.2599 9.78001" stroke="#474747" stroke-width="1.5" stroke-linecap="round" stroke-linejoin="round"/>
<path d="M12 18.2701V12.8201" stroke="#474747" stroke-width="1.5" stroke-linecap="round" stroke-linejoin="round"/>
<path d="M10.76 6.7901L7.56 8.5701C6.84 8.9701 6.23999 9.9801 6.23999 10.8101V14.2001C6.23999 15.0301 6.83 16.0401 7.56 16.4401L10.76 18.2201C11.44 18.6001 12.56 18.6001 13.25 18.2201L16.45 16.4401C17.17 16.0401 17.77 15.0301 17.77 14.2001V10.8001C17.77 9.9701 17.18 8.9601 16.45 8.5601L13.25 6.7801C12.56 6.4001 11.44 6.4001 10.76 6.7901Z" stroke="#474747" stroke-width="1.5" stroke-linecap="round" stroke-linejoin="round"/>
</svg>
