<svg width="25" height="25" viewBox="0 0 25 25" fill="none" xmlns="http://www.w3.org/2000/svg">
<path d="M9.27148 14.8298C9.27148 16.1198 10.2615 17.1598 11.4915 17.1598H14.0015C15.0715 17.1598 15.9415 16.2498 15.9415 15.1298C15.9415 13.9098 15.4115 13.4798 14.6215 13.1998L10.5915 11.7998C9.80148 11.5198 9.27148 11.0898 9.27148 9.86984C9.27148 8.74984 10.1415 7.83984 11.2115 7.83984H13.7215C14.9515 7.83984 15.9415 8.87984 15.9415 10.1698" stroke="#292D32" stroke-width="1.5" stroke-linecap="round" stroke-linejoin="round"/>
<path d="M12.5996 6.5V18.5" stroke="#292D32" stroke-width="1.5" stroke-linecap="round" stroke-linejoin="round"/>
<path d="M12.5996 22.5C18.1225 22.5 22.5996 18.0228 22.5996 12.5C22.5996 6.97715 18.1225 2.5 12.5996 2.5C7.07676 2.5 2.59961 6.97715 2.59961 12.5C2.59961 18.0228 7.07676 22.5 12.5996 22.5Z" stroke="#292D32" stroke-width="1.5" stroke-linecap="round" stroke-linejoin="round"/>
</svg>
