<svg width="25" height="25" viewBox="0 0 25 25" fill="none" xmlns="http://www.w3.org/2000/svg">
<path d="M15.7998 2.5V12.5C15.7998 13.6 14.8998 14.5 13.7998 14.5H2.7998V6.5C2.7998 4.29 4.5898 2.5 6.7998 2.5H15.7998Z" stroke="#292D32" stroke-width="1.5" stroke-linecap="round" stroke-linejoin="round"/>
<path d="M22.7998 14.5V17.5C22.7998 19.16 21.4598 20.5 19.7998 20.5H18.7998C18.7998 19.4 17.8998 18.5 16.7998 18.5C15.6998 18.5 14.7998 19.4 14.7998 20.5H10.7998C10.7998 19.4 9.8998 18.5 8.7998 18.5C7.6998 18.5 6.7998 19.4 6.7998 20.5H5.7998C4.1398 20.5 2.7998 19.16 2.7998 17.5V14.5H13.7998C14.8998 14.5 15.7998 13.6 15.7998 12.5V5.5H17.6398C18.3598 5.5 19.0198 5.89001 19.3798 6.51001L21.0898 9.5H19.7998C19.2498 9.5 18.7998 9.95 18.7998 10.5V13.5C18.7998 14.05 19.2498 14.5 19.7998 14.5H22.7998Z" stroke="#292D32" stroke-width="1.5" stroke-linecap="round" stroke-linejoin="round"/>
<path d="M8.7998 22.5C9.90437 22.5 10.7998 21.6046 10.7998 20.5C10.7998 19.3954 9.90437 18.5 8.7998 18.5C7.69524 18.5 6.7998 19.3954 6.7998 20.5C6.7998 21.6046 7.69524 22.5 8.7998 22.5Z" stroke="#292D32" stroke-width="1.5" stroke-linecap="round" stroke-linejoin="round"/>
<path d="M16.7998 22.5C17.9044 22.5 18.7998 21.6046 18.7998 20.5C18.7998 19.3954 17.9044 18.5 16.7998 18.5C15.6952 18.5 14.7998 19.3954 14.7998 20.5C14.7998 21.6046 15.6952 22.5 16.7998 22.5Z" stroke="#292D32" stroke-width="1.5" stroke-linecap="round" stroke-linejoin="round"/>
<path d="M22.7998 12.5V14.5H19.7998C19.2498 14.5 18.7998 14.05 18.7998 13.5V10.5C18.7998 9.95 19.2498 9.5 19.7998 9.5H21.0898L22.7998 12.5Z" stroke="#292D32" stroke-width="1.5" stroke-linecap="round" stroke-linejoin="round"/>
</svg>
