<svg width="100" height="180" viewBox="0 0 100 180" fill="none" xmlns="http://www.w3.org/2000/svg">
<rect x="0.5" y="0.5" width="99" height="99" rx="49.5" stroke="#5188EE"/>
<path d="M39.46 65.4C41.1 63.64 43.6 63.78 45.04 65.7L47.06 68.4C48.68 70.54 51.3 70.54 52.92 68.4L54.94 65.7C56.38 63.78 58.88 63.64 60.52 65.4C64.08 69.2 66.98 67.94 66.98 62.62V40.08C67 32.02 65.12 30 57.56 30H42.44C34.88 30 33 32.02 33 40.08V62.6C33 67.94 35.92 69.18 39.46 65.4Z" stroke="#5188EE" stroke-width="1.5" stroke-linecap="round" stroke-linejoin="round"/>
<path d="M42 40H58" stroke="#5188EE" stroke-width="1.5" stroke-linecap="round" stroke-linejoin="round"/>
<path d="M44 48H56" stroke="#5188EE" stroke-width="1.5" stroke-linecap="round" stroke-linejoin="round"/>
<rect x="49.5" y="179.5" width="79" height="1" transform="rotate(-90 49.5 179.5)" stroke="#5188EE" stroke-opacity="0.5" stroke-dasharray="10 10"/>
</svg>
